<?xml version="1.0" encoding="UTF-8"?>
<svg width="60px" height="61px" viewBox="0 0 60 61" version="1.1" xmlns="http://www.w3.org/2000/svg" xmlns:xlink="http://www.w3.org/1999/xlink">
    <title>Original 2</title>
    <defs>
        <linearGradient x1="50%" y1="0%" x2="50%" y2="100%" id="linearGradient-1">
            <stop stop-color="#36CEF9" offset="0%"></stop>
            <stop stop-color="#279DF4" offset="100%"></stop>
        </linearGradient>
    </defs>
    <g id="Page-1" stroke="none" stroke-width="1" fill="none" fill-rule="evenodd">
        <g id="Original">
            <g id="App-Icon" fill="url(#linearGradient-1)">
                <path d="M17.3062251,0 L42.6937749,9.06834139e-16 C48.7115264,-5.2689675e-16 50.8937085,0.626572875 53.0937085,1.80314575 C55.2937085,2.97971863 57.0202814,4.7062915 58.1968542,6.9062915 C59.3734271,9.1062915 60,11.2884736 60,17.3062251 L60,42.6937749 C60,48.7115264 59.3734271,50.8937085 58.1968542,53.0937085 C57.0202814,55.2937085 55.2937085,57.0202814 53.0937085,58.1968542 C50.8937085,59.3734271 48.7115264,60 42.6937749,60 L17.3062251,60 C11.2884736,60 9.1062915,59.3734271 6.9062915,58.1968542 C4.7062915,57.0202814 2.97971863,55.2937085 1.80314575,53.0937085 C0.626572875,50.8937085 -5.2689675e-16,48.7115264 9.06834139e-16,42.6937749 L9.06834139e-16,17.3062251 C-5.2689675e-16,11.2884736 0.626572875,9.1062915 1.80314575,6.9062915 C2.97971863,4.7062915 4.7062915,2.97971863 6.9062915,1.80314575 C9.1062915,0.626572875 11.2884736,0 17.3062251,0 Z"></path>
            </g>
            <path d="M29.8634054,45.0837234 C22.3623067,45.0837234 17.3673606,49.4455013 16.8675192,60.0788747 C16.8668956,60.0940263 18.6814078,60.0684469 19.2799141,60.072615 C19.5695433,60.074632 19.857235,60.0747357 20.1360564,60.072615 C20.3418415,60.0710498 20.5446838,60.0635386 20.7302078,60.072615 C21.0135216,60.0864756 21.353182,60.0788747 21.7733732,60.0788747 C22.1935644,60.0788747 22.6738917,60.0788747 23.2250178,60.0788747 C24.2425704,60.0788747 26.2789271,60.0788747 29.334088,60.0788747 C31.9787385,60.0788747 33.7693391,60.0788747 34.7058898,60.0788747 C36.1107158,60.0788747 36.7844377,60.0788747 37.4191151,60.0788747 C38.0537924,60.0788747 38.7143208,60.0788747 39.2665784,60.0788747 C40.5831747,60.0788747 41.7886949,60.0851343 42.4195444,60.0788747 C42.441588,60.0788747 42.8141086,60.0851343 42.8612435,60.0788747 C42.3592793,49.4536898 37.3645041,45.0837234 29.8634054,45.0837234 Z" id="Oval" fill="#FFFFFF"></path>
            <path d="M30,13.85 C35.0777089,13.85 41.0752748,15.7400804 45.504805,19.0420938 C49.230652,21.8195434 51.85,25.598571 51.85,30.1 C51.85,32.7782787 51.5447402,35.5660685 50.3266393,38.1890958 C49.2940262,40.4126987 47.5287351,42.5296126 45.5462532,44.2319466 C43.363159,46.106544 40.7068754,47.804225 37.8840213,48.7490037 C35.166334,49.6585842 32.2852425,49.85 30,49.85 C27.7104301,49.85 24.8828718,49.5863237 22.2003976,48.7480758 C21.7106127,48.5950227 18.0276981,47.177898 15.1100748,44.8821183 C12.6203354,42.9230261 10.8004874,40.1838302 10.3198559,39.3582798 C8.24622276,35.7965304 8.15,31.186895 8.15,30.1 C8.15,25.598571 10.769348,21.8195434 14.495195,19.0420938 C18.9247252,15.7400804 24.9222911,13.85 30,13.85 Z" id="Oval" stroke="#E6E6EA" stroke-width="0.3" fill="#FFFFFF"></path>
            <path d="M9.8,24.8 C11.4066582,24.8 12.7091121,26.1024538 12.7091121,27.7091121 C12.7091121,27.7389403 12.7086533,27.7687668 12.707736,27.7985809 L12.4784244,35.2512062 C12.434727,36.6713711 11.2708369,37.8 9.85,37.8 C8.42609296,37.8 7.25672073,36.674739 7.20199554,35.251884 L6.91529937,27.7977835 C6.85402336,26.2046074 8.09587381,24.8634089 9.68904998,24.8021329 C9.72601624,24.8007111 9.76300641,24.8 9.8,24.8 Z" id="Rectangle" fill="#FFFFFF"></path>
            <path d="M49.8,24.8 C51.4441582,24.8 52.7770118,26.1328536 52.7770118,27.7770118 C52.7770118,27.7846451 52.7769825,27.7922782 52.7769238,27.7999112 L52.7211503,35.0504573 C52.7094431,36.572397 51.4723607,37.8 49.9503759,37.8 C48.4182853,37.8 47.1632367,36.5830447 47.1160293,35.0516815 L46.8924373,27.7985756 C46.8429351,26.192773 48.1045658,24.8508834 49.7103684,24.8013812 C49.7402367,24.8004605 49.7701175,24.8 49.8,24.8 Z" id="Rectangle" fill="#FFFFFF"></path>
            <path d="M30.0783674,21.0432728 C35.085354,21.0432728 39.7468441,21.6050171 43.0837974,23.3485041 C45.7733947,24.7537614 47.5837,26.9386856 47.9639233,30.2414619 C48.4352304,34.3354304 46.2522408,38.9535613 42.449661,42.4207282 C39.3992025,45.2021158 34.6117458,46.979129 30.0783674,46.979129 C26.0256977,46.979129 21.3109543,45.2401544 18.0270065,42.41316 C15.3952264,40.1475859 13.3193688,37.5009715 12.6757354,35.2147315 C12.0836747,33.1116824 11.6643568,30.2993171 12.5269748,28.3565939 C13.8912244,25.2841337 15.3657855,24.274338 17.6361261,23.2153572 C20.535067,21.8631712 24.5919847,21.0432728 30.0783674,21.0432728 Z" id="Oval" stroke="#000000" stroke-width="0.8" fill="#1E1E1E"></path>
            <path d="M37.48,33.74 C39.8658701,33.74 41.8,37.5633127 41.8,34.9435322 C41.8,32.3237517 39.8658701,30.2 37.48,30.2 C35.0941299,30.2 33.16,32.3237517 33.16,34.9435322 C33.16,37.5633127 35.0941299,33.74 37.48,33.74 Z" id="Oval" stroke="#18DCFF" stroke-width="0.2" fill="#18DCFF"></path>
            <path d="M22.36,33.74 C24.7458701,33.74 26.68,37.5633127 26.68,34.9435322 C26.68,32.3237517 24.7458701,30.2 22.36,30.2 C19.9741299,30.2 18.04,32.3237517 18.04,34.9435322 C18.04,37.5633127 19.9741299,33.74 22.36,33.74 Z" id="Oval" stroke="#18DCFF" stroke-width="0.2" fill="#18DCFF"></path>
        </g>
    </g>
</svg>